<mxfile host="app.diagrams.net" modified="2023-12-15T12:36:50.412Z" agent="Mozilla/5.0 (Macintosh; Intel Mac OS X 10_15_7) AppleWebKit/537.36 (KHTML, like Gecko) Chrome/120.0.0.0 Safari/537.36" etag="d43wRFISmWGvPvlFeyIh" version="22.1.9" type="device">
  <diagram name="Page-1" id="yrembYF09evoZs2TSLi6">
    <mxGraphModel dx="893" dy="481" grid="1" gridSize="10" guides="1" tooltips="1" connect="1" arrows="1" fold="1" page="1" pageScale="1" pageWidth="2339" pageHeight="3300" math="0" shadow="0">
      <root>
        <mxCell id="0" />
        <mxCell id="1" parent="0" />
        <mxCell id="3NAehzccIHcmCmmis0pN-7" style="edgeStyle=orthogonalEdgeStyle;rounded=0;orthogonalLoop=1;jettySize=auto;html=1;exitX=1;exitY=0.5;exitDx=0;exitDy=0;entryX=0;entryY=0.75;entryDx=0;entryDy=0;" edge="1" parent="1" target="3NAehzccIHcmCmmis0pN-2">
          <mxGeometry relative="1" as="geometry">
            <mxPoint x="199.9999999999999" y="265.0000000000001" as="sourcePoint" />
          </mxGeometry>
        </mxCell>
        <mxCell id="3NAehzccIHcmCmmis0pN-11" style="edgeStyle=orthogonalEdgeStyle;rounded=0;orthogonalLoop=1;jettySize=auto;html=1;exitX=1;exitY=0.5;exitDx=0;exitDy=0;entryX=0;entryY=0.5;entryDx=0;entryDy=0;" edge="1" parent="1" target="3NAehzccIHcmCmmis0pN-3">
          <mxGeometry relative="1" as="geometry">
            <mxPoint x="199.9999999999999" y="265.0000000000001" as="sourcePoint" />
          </mxGeometry>
        </mxCell>
        <mxCell id="3NAehzccIHcmCmmis0pN-14" style="edgeStyle=orthogonalEdgeStyle;rounded=0;orthogonalLoop=1;jettySize=auto;html=1;exitX=1;exitY=0.5;exitDx=0;exitDy=0;entryX=0;entryY=0.5;entryDx=0;entryDy=0;" edge="1" parent="1" target="3NAehzccIHcmCmmis0pN-4">
          <mxGeometry relative="1" as="geometry">
            <mxPoint x="199.9999999999999" y="265.0000000000001" as="sourcePoint" />
          </mxGeometry>
        </mxCell>
        <mxCell id="3NAehzccIHcmCmmis0pN-18" style="edgeStyle=orthogonalEdgeStyle;rounded=0;orthogonalLoop=1;jettySize=auto;html=1;exitX=1;exitY=0.5;exitDx=0;exitDy=0;" edge="1" parent="1" source="3NAehzccIHcmCmmis0pN-1" target="3NAehzccIHcmCmmis0pN-17">
          <mxGeometry relative="1" as="geometry" />
        </mxCell>
        <mxCell id="3NAehzccIHcmCmmis0pN-37" style="edgeStyle=orthogonalEdgeStyle;rounded=0;orthogonalLoop=1;jettySize=auto;html=1;entryX=0.5;entryY=0;entryDx=0;entryDy=0;" edge="1" parent="1" source="3NAehzccIHcmCmmis0pN-1" target="3NAehzccIHcmCmmis0pN-24">
          <mxGeometry relative="1" as="geometry">
            <Array as="points">
              <mxPoint x="85" y="90" />
              <mxPoint x="795" y="90" />
            </Array>
          </mxGeometry>
        </mxCell>
        <mxCell id="3NAehzccIHcmCmmis0pN-1" value="" style="rounded=0;whiteSpace=wrap;html=1;" vertex="1" parent="1">
          <mxGeometry x="50" y="160" width="70" height="210" as="geometry" />
        </mxCell>
        <mxCell id="3NAehzccIHcmCmmis0pN-10" style="edgeStyle=orthogonalEdgeStyle;rounded=0;orthogonalLoop=1;jettySize=auto;html=1;exitX=1;exitY=0.5;exitDx=0;exitDy=0;entryX=0;entryY=0.5;entryDx=0;entryDy=0;strokeColor=#FF6666;" edge="1" parent="1" source="3NAehzccIHcmCmmis0pN-2" target="3NAehzccIHcmCmmis0pN-3">
          <mxGeometry relative="1" as="geometry" />
        </mxCell>
        <mxCell id="3NAehzccIHcmCmmis0pN-36" style="edgeStyle=orthogonalEdgeStyle;rounded=0;orthogonalLoop=1;jettySize=auto;html=1;exitX=1;exitY=0.5;exitDx=0;exitDy=0;entryX=0;entryY=0.5;entryDx=0;entryDy=0;strokeColor=#FF6666;" edge="1" parent="1" source="3NAehzccIHcmCmmis0pN-2" target="3NAehzccIHcmCmmis0pN-24">
          <mxGeometry relative="1" as="geometry">
            <Array as="points">
              <mxPoint x="700" y="165" />
              <mxPoint x="700" y="265" />
            </Array>
          </mxGeometry>
        </mxCell>
        <mxCell id="3NAehzccIHcmCmmis0pN-2" value="" style="rounded=0;whiteSpace=wrap;html=1;strokeColor=#FF6666;" vertex="1" parent="1">
          <mxGeometry x="280" y="160" width="70" height="10" as="geometry" />
        </mxCell>
        <mxCell id="3NAehzccIHcmCmmis0pN-12" style="edgeStyle=orthogonalEdgeStyle;rounded=0;orthogonalLoop=1;jettySize=auto;html=1;exitX=1;exitY=0.5;exitDx=0;exitDy=0;entryX=0;entryY=0.5;entryDx=0;entryDy=0;strokeColor=#FFB366;" edge="1" parent="1" source="3NAehzccIHcmCmmis0pN-3" target="3NAehzccIHcmCmmis0pN-4">
          <mxGeometry relative="1" as="geometry" />
        </mxCell>
        <mxCell id="3NAehzccIHcmCmmis0pN-31" style="edgeStyle=orthogonalEdgeStyle;rounded=0;orthogonalLoop=1;jettySize=auto;html=1;exitX=1;exitY=0.5;exitDx=0;exitDy=0;strokeColor=#FFB366;" edge="1" parent="1" source="3NAehzccIHcmCmmis0pN-3" target="3NAehzccIHcmCmmis0pN-24">
          <mxGeometry relative="1" as="geometry">
            <Array as="points">
              <mxPoint x="670" y="210" />
              <mxPoint x="670" y="265" />
            </Array>
          </mxGeometry>
        </mxCell>
        <mxCell id="3NAehzccIHcmCmmis0pN-3" value="" style="rounded=0;whiteSpace=wrap;html=1;strokeColor=#FFB366;" vertex="1" parent="1">
          <mxGeometry x="400" y="200" width="70" height="20" as="geometry" />
        </mxCell>
        <mxCell id="3NAehzccIHcmCmmis0pN-15" style="edgeStyle=orthogonalEdgeStyle;rounded=0;orthogonalLoop=1;jettySize=auto;html=1;exitX=1;exitY=0.5;exitDx=0;exitDy=0;entryX=0;entryY=0.5;entryDx=0;entryDy=0;strokeColor=#3399FF;" edge="1" parent="1" source="3NAehzccIHcmCmmis0pN-4" target="3NAehzccIHcmCmmis0pN-5">
          <mxGeometry relative="1" as="geometry" />
        </mxCell>
        <mxCell id="3NAehzccIHcmCmmis0pN-30" style="edgeStyle=orthogonalEdgeStyle;rounded=0;orthogonalLoop=1;jettySize=auto;html=1;strokeColor=#3399FF;" edge="1" parent="1" source="3NAehzccIHcmCmmis0pN-4">
          <mxGeometry relative="1" as="geometry">
            <mxPoint x="760" y="265.0000000000001" as="targetPoint" />
          </mxGeometry>
        </mxCell>
        <mxCell id="3NAehzccIHcmCmmis0pN-4" value="" style="rounded=0;whiteSpace=wrap;html=1;strokeColor=#3399FF;" vertex="1" parent="1">
          <mxGeometry x="520" y="250" width="70" height="30" as="geometry" />
        </mxCell>
        <mxCell id="3NAehzccIHcmCmmis0pN-29" style="edgeStyle=orthogonalEdgeStyle;rounded=0;orthogonalLoop=1;jettySize=auto;html=1;exitX=1;exitY=0.5;exitDx=0;exitDy=0;entryX=0;entryY=0.5;entryDx=0;entryDy=0;strokeColor=#00CC00;" edge="1" parent="1" source="3NAehzccIHcmCmmis0pN-5" target="3NAehzccIHcmCmmis0pN-24">
          <mxGeometry relative="1" as="geometry">
            <Array as="points">
              <mxPoint x="720" y="340" />
              <mxPoint x="720" y="265" />
            </Array>
          </mxGeometry>
        </mxCell>
        <mxCell id="3NAehzccIHcmCmmis0pN-5" value="" style="rounded=0;whiteSpace=wrap;html=1;strokeColor=#00CC00;" vertex="1" parent="1">
          <mxGeometry x="640" y="310" width="70" height="60" as="geometry" />
        </mxCell>
        <mxCell id="3NAehzccIHcmCmmis0pN-17" value="POOL" style="rounded=0;whiteSpace=wrap;html=1;" vertex="1" parent="1">
          <mxGeometry x="160" y="252.5" width="40" height="25" as="geometry" />
        </mxCell>
        <mxCell id="3NAehzccIHcmCmmis0pN-19" value="Interpolate" style="rounded=0;whiteSpace=wrap;html=1;" vertex="1" parent="1">
          <mxGeometry x="340" y="180" width="70" height="15" as="geometry" />
        </mxCell>
        <mxCell id="3NAehzccIHcmCmmis0pN-20" value="Interpolate" style="rounded=0;whiteSpace=wrap;html=1;" vertex="1" parent="1">
          <mxGeometry x="460" y="230" width="70" height="15" as="geometry" />
        </mxCell>
        <mxCell id="3NAehzccIHcmCmmis0pN-21" value="Interpolate" style="rounded=0;whiteSpace=wrap;html=1;" vertex="1" parent="1">
          <mxGeometry x="580" y="290" width="70" height="15" as="geometry" />
        </mxCell>
        <mxCell id="3NAehzccIHcmCmmis0pN-22" style="edgeStyle=orthogonalEdgeStyle;rounded=0;orthogonalLoop=1;jettySize=auto;html=1;exitX=1;exitY=0.5;exitDx=0;exitDy=0;entryX=0;entryY=0.5;entryDx=0;entryDy=0;" edge="1" parent="1" source="3NAehzccIHcmCmmis0pN-17" target="3NAehzccIHcmCmmis0pN-5">
          <mxGeometry relative="1" as="geometry" />
        </mxCell>
        <mxCell id="3NAehzccIHcmCmmis0pN-24" value="" style="rounded=0;whiteSpace=wrap;html=1;" vertex="1" parent="1">
          <mxGeometry x="760" y="160" width="70" height="210" as="geometry" />
        </mxCell>
        <mxCell id="3NAehzccIHcmCmmis0pN-25" value="" style="rounded=0;whiteSpace=wrap;html=1;strokeColor=#FF6666;" vertex="1" parent="1">
          <mxGeometry x="830" y="160" width="10" height="210" as="geometry" />
        </mxCell>
        <mxCell id="3NAehzccIHcmCmmis0pN-26" value="" style="rounded=0;whiteSpace=wrap;html=1;strokeColor=#FFB366;" vertex="1" parent="1">
          <mxGeometry x="840" y="160" width="10" height="210" as="geometry" />
        </mxCell>
        <mxCell id="3NAehzccIHcmCmmis0pN-27" value="" style="rounded=0;whiteSpace=wrap;html=1;strokeColor=#3399FF;" vertex="1" parent="1">
          <mxGeometry x="850" y="160" width="10" height="210" as="geometry" />
        </mxCell>
        <mxCell id="3NAehzccIHcmCmmis0pN-28" value="" style="rounded=0;whiteSpace=wrap;html=1;strokeColor=#00CC00;" vertex="1" parent="1">
          <mxGeometry x="860" y="160" width="10" height="210" as="geometry" />
        </mxCell>
      </root>
    </mxGraphModel>
  </diagram>
</mxfile>
